<svg xmlns="http://www.w3.org/2000/svg" width="68" height="53.787" viewBox="0 0 68 53.787">
    <defs>
        <style>
            .prefix__cls-1{fill:#a0a0a0}
        </style>
    </defs>
    <g id="prefix__book" transform="translate(0 -53.51)">
        <g id="prefix__그룹_3053" data-name="그룹 3053" transform="translate(25.595 63.708)">
            <g id="prefix__그룹_3052" data-name="그룹 3052">
                <path id="prefix__패스_3139" d="M214.93 130.3h-21.219a1 1 0 100 1.994h21.219a1 1 0 100-1.994z" class="prefix__cls-1" data-name="패스 3139" transform="translate(-192.714 -130.296)"/>
            </g>
        </g>
        <g id="prefix__그룹_3055" data-name="그룹 3055" transform="translate(17.596 63.708)">
            <g id="prefix__그룹_3054" data-name="그룹 3054">
                <path id="prefix__패스_3140" d="M136.844 130.3h-3.361a1 1 0 000 1.994h3.361a1 1 0 100-1.994z" class="prefix__cls-1" data-name="패스 3140" transform="translate(-132.486 -130.296)"/>
            </g>
        </g>
        <g id="prefix__그룹_3057" data-name="그룹 3057" transform="translate(17.596 94.261)">
            <g id="prefix__그룹_3056" data-name="그룹 3056">
                <path id="prefix__패스_3141" d="M143.908 360.341h-10.425a1 1 0 000 1.994h10.426a1 1 0 000-1.994z" class="prefix__cls-1" data-name="패스 3141" transform="translate(-132.486 -360.341)"/>
            </g>
        </g>
        <g id="prefix__그룹_3059" data-name="그룹 3059" transform="translate(17.596 84.077)">
            <g id="prefix__그룹_3058" data-name="그룹 3058">
                <path id="prefix__패스_3142" d="M148.092 283.66h-14.609a1 1 0 000 1.994h14.609a1 1 0 100-1.994z" class="prefix__cls-1" data-name="패스 3142" transform="translate(-132.486 -283.66)"/>
            </g>
        </g>
        <g id="prefix__그룹_3061" data-name="그룹 3061" transform="translate(17.596 73.892)">
            <g id="prefix__그룹_3060" data-name="그룹 3060">
                <path id="prefix__패스_3143" d="M155.2 206.977h-21.72a1 1 0 100 1.994h21.72a1 1 0 100-1.994z" class="prefix__cls-1" data-name="패스 3143" transform="translate(-132.486 -206.977)"/>
            </g>
        </g>
        <g id="prefix__그룹_3063" data-name="그룹 3063" transform="translate(0 53.51)">
            <g id="prefix__그룹_3062" data-name="그룹 3062">
                <path id="prefix__패스_3144" d="M59.177 53.51H17.982a6.625 6.625 0 00-6.617 6.618v39.22H1a1 1 0 00-1 1.007 6.684 6.684 0 006.615 6.945h41.32a6.625 6.625 0 006.617-6.618V88.6a1 1 0 00-1.994 0v12.078a4.629 4.629 0 01-4.624 4.624h-.124a4.733 4.733 0 01-4.622-4.968 1 1 0 00-1-.987h-28.83v-39.22a4.629 4.629 0 014.624-4.627h36.465l-.086.092c-.029.031-.07.074-.1.111s-.071.081-.106.122l-.1.118-.1.126c-.034.042-.064.081-.095.123l-.093.13c-.031.044-.061.085-.09.129l-.086.134c-.029.045-.057.089-.084.134s-.053.092-.079.138-.053.091-.078.138l-.073.142c-.024.048-.049.094-.072.142s-.044.1-.066.146-.044.1-.065.146-.04.1-.059.15l-.058.148c-.019.048-.035.1-.053.155l-.05.15c-.016.05-.031.107-.046.161s-.029.1-.042.151-.026.112-.039.169-.024.1-.034.149-.021.118-.032.177l-.026.146c-.008.046-.016.127-.024.191-.006.046-.013.091-.017.138-.007.071-.012.143-.016.215 0 .039-.007.079-.009.118q-.008.168-.009.337v8.847a1 1 0 001.994 0v-7.514h10.252a1 1 0 001-1.007 6.686 6.686 0 00-6.629-6.942zm-17.913 47.832q.021.155.047.307l.019.1c.013.067.025.134.04.2.008.04.018.079.027.118l.043.178.033.123c.016.056.031.112.048.167l.039.124c.013.041.035.108.054.161l.044.123c.015.041.039.105.06.157l.047.118c.016.039.045.1.068.157s.033.075.05.112l.078.162.049.1c.032.063.066.125.1.186l.037.067q.071.125.147.246l.036.056c.039.062.079.123.121.183l.058.082c.036.05.071.1.108.149l.067.087c.036.046.071.092.108.136l.073.087q.055.065.112.128l.077.084.055.06H6.615a4.619 4.619 0 01-4.526-3.962h39.175zM54.6 59.465v-.021c0-.03.01-.061.015-.091s.014-.085.023-.127l.021-.1c.007-.036.018-.079.027-.118s.017-.066.026-.1l.032-.112.031-.1.036-.105c.013-.035.024-.068.037-.1l.039-.1c.013-.034.028-.069.043-.1l.041-.09.05-.106c.017-.035.026-.052.04-.077l.06-.114.025-.043a4.63 4.63 0 01.3-.47c.036-.048.072-.1.11-.142l.018-.022.112-.133.021-.024q.058-.066.119-.129l.02-.021q.063-.065.128-.128l.026-.017q.069-.065.141-.128a4.622 4.622 0 012.191-1.061q.1-.019.205-.033h.012q.1-.014.2-.023h.031c.061-.005.122-.01.184-.013h.223a4.619 4.619 0 014.526 3.962H54.6z" class="prefix__cls-1" data-name="패스 3144" transform="translate(0 -53.51)"/>
            </g>
        </g>
        <g id="prefix__그룹_3065" data-name="그룹 3065" transform="translate(35.727 70.877)">
            <g id="prefix__그룹_3064" data-name="그룹 3064">
                <path id="prefix__패스_3145" d="M301.278 185.276v-.035a.991.991 0 00-.049-.27v-.023a1.01 1.01 0 00-.055-.127l-.008-.015a1 1 0 00-.065-.1l-.015-.021a.993.993 0 00-.085-.1l-.02-.02a.988.988 0 00-.091-.078l-.013-.01a1.017 1.017 0 00-.113-.071l-.023-.012a.986.986 0 00-.124-.053 1.016 1.016 0 00-.132-.035l-.03-.005a1 1 0 00-.138-.014c-8.34-.216-19.216 1.792-24.714 8.069-2.406 2.747-3.517 6.232-4.59 9.6l-.264.827-.011.035-1.685 5.983a1 1 0 101.919.54l1.562-5.549a31.033 31.033 0 015.525-1.879c1.078-.293 2.3-.625 3.777-1.08 3.2-.983 9.326-5.095 12.147-8.148a68.125 68.125 0 016.942-6.635l.008-.007a1 1 0 00.1-.1l.006-.006a.992.992 0 00.083-.109l.014-.021a.99.99 0 00.112-.247l.007-.025a1 1 0 00.027-.133v-.005c0-.031.006-.062.007-.094-.01-.003-.011-.016-.011-.027zm-24.185 8.394c2.32-2.649 5.876-4.645 10.57-5.934a39.091 39.091 0 013.968-.861 77.1 77.1 0 00-8.693 5.059 79.74 79.74 0 00-8.658 6.619 16.359 16.359 0 012.813-4.883zm15.417-2.335c-2.746 2.971-8.676 6.8-11.269 7.6-1.447.445-2.651.773-3.714 1.062-.962.262-1.837.5-2.7.774.387-.371.841-.786 1.376-1.253a79.765 79.765 0 017.844-5.922 54.156 54.156 0 0112.925-6.743c-1.453 1.332-2.88 2.771-4.461 4.482z" class="prefix__cls-1" data-name="패스 3145" transform="translate(-269.006 -184.272)"/>
            </g>
        </g>
    </g>
</svg>
