<svg xmlns="http://www.w3.org/2000/svg" width="61.244" height="61.244" viewBox="0 0 61.244 61.244">
    <g id="prefix__graphic-tablet" transform="translate(.249 .25)">
        <g id="prefix__그룹_3037" data-name="그룹 3037" transform="translate(19.339 37.517)">
            <g id="prefix__그룹_3036" data-name="그룹 3036">
                <path id="prefix__패스_3131" d="M164.187 316.222a1.186 1.186 0 101.186 1.186 1.186 1.186 0 00-1.186-1.186z" class="prefix__cls-1" data-name="패스 3131" transform="translate(-163.001 -316.222)"/>
            </g>
        </g>
        <g id="prefix__그룹_3039" data-name="그룹 3039" transform="translate(.001)">
            <g id="prefix__그룹_3038" data-name="그룹 3038">
                <path id="prefix__패스_3132" d="M57.186 14.593h-2.645l2.788-2.788 1.677-1.678a5.931 5.931 0 10-8.387-8.389l-1.678 1.677-11.178 11.178H3.56A3.563 3.563 0 000 18.152v39.033a3.563 3.563 0 003.56 3.559h53.626a3.563 3.563 0 003.559-3.559V18.152a3.563 3.563 0 00-3.559-3.559zM52.3 3.416a3.558 3.558 0 115.032 5.033l-.839.839-2.5-2.5-.012-.013-2.524-2.52zm-2.521 2.517l5.034 5.034-17.328 17.326a7.931 7.931 0 00-5.033-5.033zM29.147 23.21a1.207 1.207 0 00-.087.1l-.023.031c-.019.025-.036.05-.053.076l-.021.035c-.016.028-.031.056-.045.085l-.015.031a1.188 1.188 0 00-.043.111V23.699l-3.36 10.41a1.186 1.186 0 001.54 1.477l10.067-3.712.018-.008c.026-.01.051-.021.077-.033l.037-.018c.025-.013.049-.027.072-.041l.035-.021.07-.05.029-.022c.031-.025.061-.052.09-.08l9.888-9.888h6.2V53.27H16.967V21.711h13.679zm1.682 2.09a5.537 5.537 0 014.621 4.654l-6.944 2.561zm27.543 31.885a1.188 1.188 0 01-1.186 1.186H3.56a1.188 1.188 0 01-1.186-1.186V18.152a1.188 1.188 0 011.186-1.186h31.83l-2.372 2.373H15.78a1.186 1.186 0 00-1.186 1.186v33.931a1.186 1.186 0 001.186 1.186h39.033A1.186 1.186 0 0056 54.456V20.525a1.186 1.186 0 00-1.186-1.186H49.8l2.373-2.373h5.017a1.188 1.188 0 011.186 1.186v39.033z" class="prefix__cls-1" data-name="패스 3132" transform="translate(-.001)"/>
            </g>
        </g>
        <g id="prefix__그룹_3041" data-name="그룹 3041" transform="translate(5.103 21.711)">
            <g id="prefix__그룹_3040" data-name="그룹 3040">
                <path id="prefix__패스_3133" d="M48.933 183h-4.746a1.186 1.186 0 000 2.373h4.746a1.186 1.186 0 000-2.373z" class="prefix__cls-1" data-name="패스 3133" transform="translate(-43.001 -183.002)"/>
            </g>
        </g>
        <g id="prefix__그룹_3043" data-name="그룹 3043" transform="translate(5.103 26.457)">
            <g id="prefix__그룹_3042" data-name="그룹 3042">
                <path id="prefix__패스_3134" d="M48.933 223h-4.746a1.186 1.186 0 100 2.373h4.746a1.186 1.186 0 100-2.373z" class="prefix__cls-1" data-name="패스 3134" transform="translate(-43.001 -223.002)"/>
            </g>
        </g>
        <g id="prefix__그룹_3045" data-name="그룹 3045" transform="translate(5.103 45.796)">
            <g id="prefix__그룹_3044" data-name="그룹 3044">
                <path id="prefix__패스_3135" d="M48.933 386h-4.746a1.186 1.186 0 000 2.373h4.746a1.186 1.186 0 000-2.373z" class="prefix__cls-1" data-name="패스 3135" transform="translate(-43.001 -386.002)"/>
            </g>
        </g>
        <g id="prefix__그룹_3047" data-name="그룹 3047" transform="translate(5.103 50.541)">
            <g id="prefix__그룹_3046" data-name="그룹 3046">
                <path id="prefix__패스_3136" d="M48.933 426h-4.746a1.186 1.186 0 100 2.373h4.746a1.186 1.186 0 100-2.373z" class="prefix__cls-1" data-name="패스 3136" transform="translate(-43.001 -426.002)"/>
            </g>
        </g>
        <g id="prefix__그룹_3049" data-name="그룹 3049" transform="translate(5.103 33.931)">
            <g id="prefix__그룹_3048" data-name="그룹 3048">
                <path id="prefix__패스_3137" d="M46.56 286a3.559 3.559 0 103.559 3.559A3.563 3.563 0 0046.56 286zm0 4.746a1.186 1.186 0 111.186-1.186 1.188 1.188 0 01-1.186 1.188z" class="prefix__cls-1" data-name="패스 3137" transform="translate(-43.001 -286.002)"/>
            </g>
        </g>
        <g id="prefix__그룹_3051" data-name="그룹 3051" transform="translate(24.797 38.404)">
            <g id="prefix__그룹_3050" data-name="그룹 3050">
                <path id="prefix__패스_3138" d="M235.146 325.557a1.186 1.186 0 00-1.676-.077 4.289 4.289 0 01-5.875 0 6.219 6.219 0 00-8.717 0 3.853 3.853 0 01-5.52 0 6.756 6.756 0 00-2.877-1.6 1.186 1.186 0 00-.59 2.3 4.411 4.411 0 011.868 1.05 6.219 6.219 0 008.717 0 3.853 3.853 0 015.52 0 6.659 6.659 0 009.073 0 1.186 1.186 0 00.077-1.673z" class="prefix__cls-1" data-name="패스 3138" transform="translate(-208.999 -323.696)"/>
            </g>
        </g>
    </g>
</svg>
