<svg xmlns="http://www.w3.org/2000/svg" width="20" height="20" viewBox="0 0 20 20">
    <g id="prefix__heart_default" transform="translate(-259 -912)">
        <path id="prefix__사각형_2066" d="M0 0H20V20H0z" data-name="사각형 2066" transform="translate(259 912)" style="fill:#adadad;opacity:0"/>
        <g id="prefix__heart_select" style="fill:none">
            <path d="M2068.364-6447.157l-.021.021-6.437-6.684a3.8 3.8 0 0 1 0-5.233 3.471 3.471 0 0 1 5.039 0l1.419 1.474 1.418-1.474a3.475 3.475 0 0 1 5.039 0 3.8 3.8 0 0 1 0 5.233l-6.437 6.684z" style="stroke:none" transform="translate(-1798.863 7376.136)"/>
            <path d="M2068.348-6448.572l.024-.025.015.016 5.713-5.932c1.02-1.06 1.02-2.785.001-3.845-.483-.5-1.122-.776-1.8-.776-.677 0-1.316.276-1.799.775l-1.418 1.474-.72.748-.72-.748-1.419-1.473c-.483-.502-1.122-.778-1.8-.778-.677 0-1.316.276-1.798.777-1.02 1.06-1.02 2.786 0 3.846l5.721 5.94m.036 1.437l-.02-.02-.021.02-6.437-6.683c-1.39-1.446-1.39-3.787 0-5.233.696-.722 1.608-1.084 2.52-1.084.911 0 1.823.362 2.52 1.084l1.418 1.473 1.418-1.473c.696-.721 1.608-1.082 2.52-1.082.911 0 1.823.36 2.519 1.082 1.39 1.446 1.39 3.787 0 5.233l-6.437 6.683z" style="fill:#a5a5a5;stroke:none" transform="translate(-1798.863 7376.136)"/>
        </g>
    </g>
</svg>
